<?xml version="1.0" encoding="iso-8859-1"?>
<!-- Generator: Adobe Illustrator 19.0.0, SVG Export Plug-In . SVG Version: 6.00 Build 0)  -->
<svg version="1.1" id="Layer_1" xmlns="http://www.w3.org/2000/svg" xmlns:xlink="http://www.w3.org/1999/xlink" x="0px" y="0px"
	 viewBox="0 0 512.107 512.107" style="enable-background:new 0 0 512.107 512.107;" xml:space="preserve">
<g>
	<g>
		<path d="M510.332,293.569l-49.314-66.125c-2.381-3.209-6.724-4.301-10.342-2.679c-1.109,0.503-111.326,50.731-208.794,135.748
			c-3.558,3.089-3.925,8.482-0.819,12.032c3.098,3.55,8.482,3.934,12.032,0.828c82.398-71.868,174.106-118.4,198.417-130.133
			l42.718,57.293l-6.238,24.943c-26.462,5.265-146.33,30.276-272.393,74.308l-42.496-42.496
			c127.77-55.714,265.335-144.401,266.752-145.323c2.825-1.818,4.309-5.137,3.797-8.456L426.586,92.574
			c-0.06-0.427-0.256-0.794-0.384-1.195c-0.102-0.341-0.179-0.683-0.333-1.015c-0.418-0.939-0.964-1.809-1.681-2.526
			c-0.009-0.009-0.009-0.017-0.017-0.017c-0.043-0.043-0.094-0.051-0.137-0.094c-0.7-0.666-1.51-1.186-2.415-1.587
			c-0.324-0.145-0.648-0.222-0.99-0.324c-0.393-0.119-0.759-0.307-1.178-0.375L308.519,68.374c-3.362-0.512-6.639,0.981-8.465,3.797
			c-0.913,1.417-89.583,138.974-144.623,267.443l-43.093-43.093c44.766-120.098,83.072-246.673,90.744-272.35l24.704-6.178
			l42.155,42.359c-11.102,22.827-58.18,115.157-131.268,198.562c-3.106,3.541-2.748,8.934,0.794,12.041s8.934,2.748,12.041-0.794
			c85.427-97.493,135.987-206.916,136.482-208.017c1.485-3.234,0.802-7.04-1.707-9.566L236.472,2.522
			c-2.116-2.133-5.188-3.004-8.124-2.261l-34.133,8.533c-2.927,0.734-5.257,2.97-6.11,5.871
			c-0.427,1.442-42.965,145.63-93.303,280.013l-53.274,76.1l-1.34-1.34c-3.337-3.337-8.73-3.337-12.066,0
			c-16.06,16.051-26.197,37.82-27.802,59.716c-1.715,23.322,6.033,44.843,21.803,60.621c14.396,14.396,33.766,22.323,54.545,22.332
			c23.979,0,48-10.283,65.92-28.203c1.604-1.596,2.5-3.772,2.5-6.033c0-2.261-0.896-4.429-2.5-6.033l-1.34-1.34l76.032-53.222
			c142.336-50.125,277.888-75.827,279.253-76.083c3.268-0.614,5.888-3.081,6.699-6.315l8.533-34.133
			C512.388,298.253,511.859,295.625,510.332,293.569z M311.42,86.08l88.866,13.679L297.28,203.431
			c-3.328,3.345-3.311,8.747,0.034,12.075c1.664,1.647,3.84,2.475,6.016,2.475c2.193,0,4.386-0.845,6.05-2.517l102.912-103.586
			l13.645,88.73c-24.354,15.462-140.322,87.885-251.162,137.293C223.595,226.531,295.966,110.46,311.42,86.08z M103.582,311.898
			l42.581,42.581l-24.013,23.765l-38.238-38.246L103.582,311.898z M73.971,354.189l36.053,36.062l-24.644,24.38l-31.599-31.599
			L73.971,354.189z M76.668,495.04c-16.452-0.009-31.138-5.999-42.479-17.331c-12.211-12.211-18.193-29.013-16.853-47.309
			c1.118-15.138,7.262-30.242,17.152-42.53l44.791,44.791c0.009,0.009,0.009,0.009,0.009,0.017c0.009,0,0.009,0,0.017,0.008
			l44.868,44.868C110.383,488.751,93.47,495.04,76.668,495.04z M128.994,458.245l-31.539-31.539l24.644-24.388l35.729,35.738
			L128.994,458.245z M172.028,428.122l-37.803-37.811l24.013-23.757l41.89,41.89L172.028,428.122z"/>
	</g>
</g>
<g>
</g>
<g>
</g>
<g>
</g>
<g>
</g>
<g>
</g>
<g>
</g>
<g>
</g>
<g>
</g>
<g>
</g>
<g>
</g>
<g>
</g>
<g>
</g>
<g>
</g>
<g>
</g>
<g>
</g>
</svg>
