<?xml version="1.0" standalone="no"?>
<!DOCTYPE svg PUBLIC "-//W3C//DTD SVG 20010904//EN"
 "http://www.w3.org/TR/2001/REC-SVG-20010904/DTD/svg10.dtd">
<svg version="1.0" xmlns="http://www.w3.org/2000/svg"
 width="2000.000000pt" height="2000.000000pt" viewBox="0 0 2000.000000 2000.000000"
 preserveAspectRatio="xMidYMid meet">
<metadata>
Created by potrace 1.14, written by Peter Selinger 2001-2017
</metadata>
<g transform="translate(0.000000,2000.000000) scale(0.100000,-0.100000)"
fill="#000000" stroke="none">
<path d="M8815 16611 c-671 -79 -1183 -571 -1281 -1233 -21 -143 -14 -360 15
-495 122 -560 544 -984 1110 -1114 137 -32 384 -37 536 -11 304 52 554 182
776 402 284 282 422 615 423 1015 0 185 -17 296 -69 451 -194 581 -711 966
-1325 989 -63 2 -146 0 -185 -4z"/>
<path d="M6250 14764 c-350 -68 -592 -300 -723 -695 -89 -265 -135 -711 -108
-1034 68 -813 405 -1567 936 -2099 306 -305 622 -499 1050 -641 285 -95 570
-148 890 -165 99 -5 375 -17 613 -26 659 -26 849 -13 1178 76 158 43 632 160
649 160 15 0 -302 -386 -409 -498 -119 -124 -224 -201 -370 -272 -337 -163
-686 -235 -1196 -247 l-255 -5 -260 40 c-143 23 -305 46 -360 53 -117 14 -459
16 -494 2 -22 -9 -21 -11 42 -69 86 -79 180 -133 437 -252 305 -142 414 -173
830 -237 129 -19 287 -44 350 -55 244 -41 405 -54 690 -54 296 1 429 13 650
60 614 129 1105 468 1521 1049 254 355 412 647 517 960 147 433 207 965 146
1288 -49 260 -194 477 -381 575 -192 100 -422 109 -592 23 -77 -39 -113 -71
-165 -145 -113 -158 -200 -391 -296 -791 -193 -804 -230 -940 -327 -1207 -41
-115 -48 -127 -67 -123 -34 8 -370 43 -516 55 -74 5 -265 14 -425 20 -159 6
-326 15 -370 21 -667 86 -1224 291 -1648 606 -336 250 -563 729 -641 1353 -28
226 -35 336 -56 863 -21 559 -37 743 -75 892 -27 108 -79 241 -118 302 -48 75
-185 162 -312 198 -59 16 -283 29 -335 19z"/>
<path d="M9315 13613 c-245 -21 -488 -106 -696 -244 -120 -80 -304 -263 -381
-379 -110 -166 -185 -342 -225 -530 -26 -122 -26 -449 1 -570 61 -282 196
-529 396 -730 201 -201 443 -332 730 -395 113 -25 382 -31 500 -11 322 53 583
187 810 415 206 208 343 476 396 771 21 118 21 349 -1 475 -49 288 -181 549
-385 759 -103 106 -179 167 -299 240 -244 147 -567 223 -846 199z"/>
<path d="M3315 11045 c-221 -59 -401 -200 -550 -430 -77 -118 -126 -222 -184
-390 -107 -309 -158 -567 -241 -1225 -128 -1022 -137 -1057 -467 -1895 -82
-209 -172 -438 -198 -509 -108 -286 -265 -546 -504 -831 -123 -148 -477 -495
-795 -781 -165 -148 -317 -285 -338 -304 l-39 -35 3 -287 3 -288 65 42 c36 22
214 128 395 236 497 293 733 456 1129 781 1283 1051 2162 2415 2475 3842 149
682 157 1171 26 1578 -68 209 -185 350 -368 443 -124 62 -296 84 -412 53z"/>
<path d="M14487 10920 c-137 -23 -294 -92 -400 -175 -90 -71 -364 -411 -584
-725 -341 -486 -667 -1097 -884 -1657 -75 -193 -197 -558 -238 -713 -73 -274
-105 -597 -82 -815 32 -290 108 -493 285 -758 306 -457 677 -841 1281 -1326
215 -172 754 -577 820 -616 28 -16 158 -99 290 -185 280 -183 401 -255 528
-315 96 -46 257 -108 263 -102 8 7 -150 194 -277 331 -771 821 -1261 1478
-1695 2271 -186 340 -291 607 -301 764 -7 109 5 166 62 287 70 151 123 219
366 477 238 252 675 840 889 1197 97 162 211 396 294 605 130 330 169 495 170
720 0 122 -4 166 -22 239 -68 274 -230 441 -474 490 -81 17 -210 19 -291 6z"/>
<path d="M15930 10826 c-74 -39 -156 -85 -181 -103 -105 -73 -198 -210 -247
-363 -76 -237 -75 -570 3 -995 197 -1072 735 -2122 1556 -3040 116 -130 423
-435 559 -556 441 -392 1013 -789 1605 -1114 164 -90 573 -295 703 -352 l72
-32 0 273 0 273 -112 90 c-62 49 -228 177 -368 283 -311 236 -422 325 -567
452 -227 201 -462 471 -596 684 -65 105 -644 1246 -714 1409 -95 218 -142 393
-278 1021 -115 535 -176 774 -269 1041 -76 222 -199 490 -278 606 -139 205
-353 362 -618 455 -132 45 -120 47 -270 -32z"/>
<path d="M4915 10879 c-164 -20 -327 -95 -441 -201 -72 -68 -104 -116 -134
-202 -96 -279 3 -663 265 -1030 161 -226 490 -580 730 -787 333 -288 719 -565
1175 -844 172 -106 238 -155 302 -223 100 -107 159 -224 180 -356 9 -61 8 -98
-11 -246 -76 -594 -223 -1100 -573 -1969 -125 -310 -191 -454 -387 -831 -241
-463 -361 -711 -361 -741 0 -9 114 58 167 99 18 13 115 113 216 221 640 686
959 1078 1328 1628 497 742 726 1264 800 1828 15 113 6 290 -20 408 -76 333
-299 759 -644 1223 -520 700 -1148 1303 -1889 1812 -220 151 -310 190 -488
212 -95 11 -115 11 -215 -1z"/>
</g>
</svg>
