<?xml version="1.0" encoding="utf-8"?>
<svg version="1.1" baseProfile="tiny" id="Layer_1" xmlns="http://www.w3.org/2000/svg" xmlns:xlink="http://www.w3.org/1999/xlink"
	 x="0px" y="0px" viewBox="0 0 532 417" xml:space="preserve">
<g id="XMLID_4_">
	<path id="XMLID_72_" fill="#F39C44" d="M241.2,291.5c16.1-16.3,33.1-31.1,56.8-36c-3-4.9-6.2-6.9-11.9-5.4
		c-14.3,3.9-27.1,10.7-38.9,19.5c-1.3,1-2.7,1.9-4,2.9c-3.9-2.5-2.8,0.9-3.2,2.6c-0.4,0.3-0.7,0.6-1.1,0.9c-2.9-1-7.7-0.6-4.5-6.2
		c1.3-2.3-0.2-3-2.3-2.3c-3.3,1.1-4.7-0.8-6-3.5c-1.5-3-1.8-6.1-1.2-9.4c11-16.4,25.9-27.6,44.7-33.7c-6.2-11.8-3-11.3-14.5-5.1
		c-16.5,8.8-31.3,20-42.1,35.7c-0.7,1.1-1.4,2.3-2.8,2.7c-3-3.4-5.7-1-8.5,0.8c-0.5-2.5,1-3.2,2.1-4.4c2.2-2.4,1.1-5.1-1.4-5.2
		c-6.1-0.3-8.5-3.3-9.1-8.8c-0.1-1.2,0.2-3-1.7-3.2c-1.5-0.1-2.8,0.6-3.5,2.2c-0.8,1.9-2.8,2.7-4.3,4c-0.8,0.7-2,0.6-2.5-0.5
		c-0.7-2-1.7-4.1-1.6-6.1c0.1-1.3,1.9-0.5,2.8,0.2c1,0.7,2.1,1.6,3,0.3c1.2-1.7-0.8-2-1.6-3c-1.6-2.1-5.4-1.2-6-4.5
		c16.4-28.6,36.7-52.9,69.4-63.7c3-1,4.8-10.7,2.3-12.7c-1.5-1.2-3.1,0-4.6,0.6c-13,5.1-24.2,13-35,21.6
		c-6.6,5.2-12.2,11.3-17.5,17.7c-11.6,13.8-27,21.7-43.3,28.3c-1.5,0.6-3,0.8-5,0.1c7-5.9,13.5-12.1,19.3-18.9
		c9.3-10.9,14.4-24.1,19.6-37.2c12.3-31.6,30.2-59.4,56.4-81.3c12.9-10.7,27.4-18.6,43.4-23.6c5.6-1.8,8.1-7,12.1-10.7
		c-20.6,1.4-39.6,8.9-58.8,15.7c13.4-10.5,26.9-20.5,41.3-29.4c14.8-9.1,29.8-17.5,46.3-22.3c56.7-16.4,108.5-5.7,154.4,30.9
		c34,27.1,51.1,63.5,51.8,106.9c0.6,35.4-11.2,66.7-34.4,93.5c-11.8,13.6-25.8,24.7-42,32.7c-6.9,3.4-11.6,9.3-17.3,14.1
		c-19.4,16.3-40.7,28.3-66.2,32.1c-13.8,2.1-27.5,1.4-41.2,0.1c-19.8-1.9-39.1-0.8-57.6,7.1c-0.6,0.2-1.3,0.2-2.3-0.5
		c1.7-1.1,3.3-2.1,5-3.2c22.1-13.6,46.2-21.3,71.8-25c11.8-1.7,23.5-4.1,34.6-9.1c-19-5-26.3-4.7-50.8,1.6
		c-22.4,5.8-44,13.4-63.8,25.7c-0.3-2.2-1.7-4.3-0.4-6.7c0.6-1.1,0.2-2.7-1-2.9c-2.7-0.3-5.1-2.5-7.9-1.9c-3.3,0.7-4.7-0.4-4.7-3.7
		c0-3.1-1.5-6.2-4.2-6.6C244.8,294.8,243.4,292.8,241.2,291.5z M275.6,151.8c-0.2,60.8,53.2,114.4,117.5,112.5
		c63.6-1.8,113.7-53.9,112.3-117.5C503.9,83,451.5,33.1,387.5,34.6C324.3,36.1,274.2,88.6,275.6,151.8z M233.4,258.4
		c2.3-1.9,5.1-0.1,6.2-2.8c0.2-0.6-0.8-1.3-1.7-1.4C235.4,253.7,233.7,254.4,233.4,258.4z"/>
	<path id="XMLID_71_" fill="#F2A243" d="M178.2,225.9c0.6,3.4,4.4,2.4,6,4.5c0.7,0.9,2.7,1.3,1.6,3c-0.9,1.3-2.1,0.4-3-0.3
		c-1-0.7-2.8-1.4-2.8-0.2c-0.1,2,0.9,4.1,1.6,6.1c0.4,1.2,1.7,1.2,2.5,0.5c1.5-1.3,3.4-2.1,4.3-4c0.7-1.6,2-2.3,3.5-2.2
		c1.8,0.1,1.6,2,1.7,3.2c0.6,5.5,3,8.6,9.1,8.8c2.6,0.1,3.6,2.8,1.4,5.2c-1.1,1.2-2.6,1.9-2.1,4.4c2.8-1.8,5.5-4.3,8.5-0.8
		c-4.9,8.8-11,16.8-16.7,25.1c-15.9,23.1-34.5,43.7-57.2,60.4c-9,6.6-18.7,11-29.9,12.5c-9.7,1.3-28.7,0.8-36.1-1.5
		c0-0.3,0-0.7,0.2-0.8c26.2-12,45.2-32,62.1-54.5c15.6-20.7,28.5-43.1,42.3-65C176,228.8,177.2,227.4,178.2,225.9z"/>
	<path id="XMLID_70_" fill="#F2A243" d="M241.2,291.5c2.2,1.3,3.6,3.4,6.6,3.8c2.7,0.4,4.2,3.5,4.2,6.6c0,3.3,1.4,4.4,4.7,3.7
		c2.8-0.6,5.1,1.6,7.9,1.9c1.2,0.1,1.7,1.8,1,2.9c-1.3,2.4,0.1,4.5,0.4,6.7c-16.9,12-28.7,28.8-41.8,44.4
		c-15.7,18.6-35.3,31.3-58.1,39.4c-1.4,0.5-2.7,1-4.5,0.3c15.6-10.7,26.1-25.3,34.3-41.8c10-20.2,20.1-40.4,35.2-57.4
		C234.4,298.3,237.5,294.6,241.2,291.5z"/>
	<path id="XMLID_69_" fill="#F2A243" d="M183.8,406c22.9-9.9,39.2-26.3,55.7-42.4c14.1-13.8,30.1-24.4,49.9-28.3
		c13.1-2.5,26.2-3.7,40.7-2.6c-8.5,3.8-15.9,7-23.2,10.4c-17.9,8.2-34.6,18.2-49.7,30.8c-20.1,16.7-43.1,27-68.6,32.1
		c-0.8,0.2-1.6,0.3-2.5,0.4C185.7,406.5,185.4,406.3,183.8,406z">
		<animateTransform attributeName="transform"
			attributeType="XML"
			type="translate"
			dur="0.4s"
			values="4,0;-4,0;4,0"
			repeatCount="indefinite"/>
	</path>
	<path id="XMLID_68_" fill="#F2A243" d="M225,254.6c-0.6,3.3-0.2,6.4,1.2,9.4c1.3,2.6,2.7,4.5,6,3.5c2.2-0.7,3.6,0,2.3,2.3
		c-3.2,5.6,1.6,5.2,4.5,6.2c-16.3,15.5-30,33.5-47.4,48c-11.8,9.8-24.7,14.5-39.6,15.5c0.1-1.5,1.1-2,1.9-2.4
		c16.6-8.4,27.3-22.9,38.1-37.2c10-13.2,19.4-26.9,29-40.3C222.2,257.9,223.6,256.3,225,254.6z"/>
	<path id="XMLID_67_" fill="#F2A243" d="M4.1,300.7c9.6,8.8,19.8,16.5,32.6,20c17.8,4.7,34.7,1.8,51.3-5.4
		c8.4-3.6,15.8-8.9,23.6-13.4l0,0c-1,4.3-4.4,6.8-7.1,9.9c-8.3,9.8-17.8,18.3-29.2,24.4c-18.1,9.7-34.9,8-50.2-5.3
		c-9.4-8.2-16.3-18.3-21.5-29.6C3.7,301.1,3.9,300.9,4.1,300.7z">
		<animateTransform attributeName="transform"
			attributeType="XML"
			type="translate"
			dur="0.4s"
			begin="0.4"
			values="4,0;-4,0;4,0"
			repeatCount="indefinite"/>
	</path>
	<path id="XMLID_66_" fill="#F2A243" d="M89.8,186.3c2.8,0.3,3.5,2.2,4.7,3.5c13.2,14.1,28.2,16.7,45.4,7.9c6.7-3.4,12.6-8,18-13.2
		c1.2-1.1,2.4-2.2,3.5-3.2c0.9,0.7,1.1,1.3,0.7,1.9c-7.6,12-15.7,23.5-27.4,31.8c-6.9,5-14.5,8.3-23.2,4.4
		c-5.9-2.6-9.7-7.4-12.9-12.7C94.8,200.5,92.2,193.7,89.8,186.3z">
		<animateTransform attributeName="transform"
			attributeType="XML"
			type="translate"
			dur="0.4s"
			begin="0.6"
			values="4,0;-4,0;4,0"
			repeatCount="indefinite"/>
	</path>
	<path id="XMLID_65_" fill="#F2A243" d="M101.6,384.6c1.1-0.4,1.9,0.2,2.8,0.7c16.9,8.6,33.5,7.2,50.1-1c8.2-4,15.4-9.5,23-15
		c-1.8,2.6-3.4,5.3-5.3,7.9c-5.8,7.7-12.4,14.7-20.4,20.1C134.6,408.7,115.3,405.4,101.6,384.6L101.6,384.6z">
		<animateTransform attributeName="transform"
			attributeType="XML"
			type="translate"
			dur="0.4s"
			begin="0.2"
			values="4,0;-4,0;4,0"
			repeatCount="indefinite"/>
	</path>
	<path id="XMLID_64_" fill="#F2A243" d="M240.1,275c0.4-1.7-0.7-5.2,3.2-2.6C242.2,273.3,241.2,274.1,240.1,275z"/>
	<path id="XMLID_63_" fill="#F2A243" d="M3.5,301.3c-0.1-0.4-0.4-1-0.3-1.1c0.5-0.4,0.7,0.1,0.8,0.5C3.9,300.9,3.7,301.1,3.5,301.3z
		"/>
	<path id="XMLID_62_" fill="#F2A243" d="M111.6,301.9c0.1-0.2,0.2-0.5,0.4-0.7c0.1,0.2,0.2,0.3,0.3,0.5
		C112,301.7,111.8,301.8,111.6,301.9C111.5,301.8,111.6,301.9,111.6,301.9z"/>
	<path id="XMLID_61_" fill="#F2A243" d="M101.6,384.5c-0.2-0.2-0.5-0.3-0.7-0.5C101.6,383.7,101.8,383.9,101.6,384.5
		C101.6,384.6,101.6,384.5,101.6,384.5z"/>
	<path id="XMLID_59_" fill="#F2A243" d="M233.4,258.4c0.4-4,2.1-4.7,4.5-4.2c0.9,0.2,1.9,0.9,1.7,1.4
		C238.5,258.3,235.7,256.5,233.4,258.4z"/>
</g>
</svg>
