<?xml version="1.0" encoding="iso-8859-1"?>
<!-- Generator: Adobe Illustrator 19.0.0, SVG Export Plug-In . SVG Version: 6.00 Build 0)  -->
<svg version="1.1" id="Layer_1" xmlns="http://www.w3.org/2000/svg" xmlns:xlink="http://www.w3.org/1999/xlink" x="0px" y="0px"
	 viewBox="0 0 511.885 511.885" style="enable-background:new 0 0 511.885 511.885;" xml:space="preserve">
<g>
	<g>
		<g>
			<path d="M101.589,101.584c3.337-3.337,3.337-8.738,0-12.066c-3.328-3.336-8.73-3.336-12.066,0
				c-57.711,57.719-49.536,159.804,18.227,227.567c1.664,1.664,3.849,2.5,6.033,2.5s4.369-0.836,6.033-2.5
				c3.337-3.337,3.337-8.73,0-12.066C58.709,243.903,50.534,152.647,101.589,101.584z"/>
			<path d="M501.23,423.549l-45.845-45.845c-0.014-0.014-0.025-0.03-0.039-0.044c-0.014-0.014-0.03-0.026-0.044-0.039
				l-51.096-51.096c39.765-77.946,21.614-182.474-50.903-254.991C265.58-16.198,131.001-24.364,53.322,53.306
				c-77.679,77.688-69.504,212.258,18.227,299.981c4.776,4.778,9.698,9.308,14.735,13.613c-38.51,1.687-69.322,33.533-69.322,72.452
				c0,39.996,32.538,72.533,72.533,72.533c39.996,0,72.533-32.538,72.533-72.533c0-10.989-2.469-21.409-6.861-30.751
				c27.134,10.773,55.409,16.222,83.089,16.222c30.993,0,61.236-6.829,88.28-20.626l97.023,97.023
				c7.1,7.1,16.427,10.65,25.745,10.65c9.327,0,18.654-3.55,25.754-10.65l26.172-26.172
				C515.421,460.848,515.421,437.748,501.23,423.549z M89.496,494.819c-30.583,0-55.467-24.883-55.467-55.467
				c0-30.583,24.883-55.467,55.467-55.467c30.583,0,55.467,24.883,55.467,55.467C144.962,469.935,120.079,494.819,89.496,494.819z
				 M65.388,65.381c32.444-32.444,75.87-48.358,121.207-48.358c53.939,0,110.592,22.537,154.641,66.577
				c33.298,33.301,54.286,73.801,62.552,114.889l-205.29,205.29c-41.086-8.265-81.583-29.255-114.883-62.558
				C2.54,260.146-5.635,136.404,65.388,65.381z M219.516,406.894l187.388-187.38c3.23,33.935-2.277,67.497-16.761,96.977
				l-4.062,7.287c-6.59,11.818-14.253,22.464-22.818,31.709c-0.035,0.038-0.069,0.077-0.105,0.114
				c-0.919,0.99-1.858,1.949-2.798,2.907c-0.304,0.309-0.598,0.625-0.905,0.932c-0.319,0.319-0.646,0.624-0.967,0.939
				c-0.942,0.924-1.885,1.847-2.858,2.751c-0.057,0.053-0.114,0.104-0.171,0.157c-9.237,8.55-19.871,16.202-31.68,22.784
				l-7.255,4.048C287.035,404.613,253.462,410.126,219.516,406.894z M371.522,371.514c9.15-9.151,17.094-19.1,23.872-29.661
				l41.844,41.84l-53.53,53.537l-41.839-41.842C352.428,388.611,362.372,380.662,371.522,371.514z M489.164,462.973l-26.18,26.18
				c-7.535,7.543-19.814,7.543-27.358,0l-39.851-39.855l53.538-53.531l39.852,39.848
				C496.707,443.159,496.707,455.438,489.164,462.973z"/>
		</g>
	</g>
</g>
<g>
</g>
<g>
</g>
<g>
</g>
<g>
</g>
<g>
</g>
<g>
</g>
<g>
</g>
<g>
</g>
<g>
</g>
<g>
</g>
<g>
</g>
<g>
</g>
<g>
</g>
<g>
</g>
<g>
</g>
</svg>
