<?xml version="1.0" encoding="iso-8859-1"?>
<!-- Generator: Adobe Illustrator 19.0.0, SVG Export Plug-In . SVG Version: 6.00 Build 0)  -->
<svg version="1.1" id="Layer_1" xmlns="http://www.w3.org/2000/svg" xmlns:xlink="http://www.w3.org/1999/xlink" x="0px" y="0px"
	 viewBox="0 0 511.999 511.999" style="enable-background:new 0 0 511.999 511.999;" xml:space="preserve">
<g>
	<path style="fill:#000001;" d="M162.618,114.144c1.412,0.689,2.907,1.016,4.38,1.016c3.702,0,7.261-2.065,8.993-5.616
		c8.137-16.668,18.395-32.469,30.487-46.967c3.538-4.241,2.968-10.547-1.273-14.085c-4.24-3.538-10.547-2.967-14.084,1.273
		c-13.124,15.732-24.261,32.892-33.103,51.005C155.596,105.734,157.655,111.721,162.618,114.144z"/>
	<path style="fill:#000001;" d="M472.888,39.19c-0.014-0.015-0.025-0.03-0.039-0.044c-0.014-0.013-0.027-0.024-0.041-0.037
		c-12.213-12.204-26.759-21.744-42.894-28.351c-0.67-0.363-1.371-0.643-2.092-0.842c-16.65-6.501-34.933-9.911-54.067-9.911
		c-2.147,0-4.297,0.057-6.447,0.141c-0.25-0.002-0.501,0.013-0.752,0.031c-33.065,1.427-66.33,12.602-95.941,31.858
		c-0.163,0.101-0.325,0.204-0.484,0.314c-12.402,8.113-24.157,17.642-34.981,28.464l0,0l0,0h-0.001
		c-34.386,34.386-55.7,77.846-60.017,122.372c-0.324,3.346-0.538,6.665-0.666,9.961c-1.926,23.925-8.031,69.34-27.284,110
		c-0.247,0.426-0.455,0.874-0.639,1.333c-8.035,16.677-18.307,32.5-31.444,45.642c-0.004,0.004-0.01,0.007-0.014,0.011
		L2.928,462.296c-3.904,3.905-3.904,10.237,0,14.142l32.629,32.628c1.876,1.875,4.419,2.929,7.071,2.929
		c2.652,0,5.195-1.054,7.071-2.929l112.153-112.154c0.002-0.002,0.004-0.003,0.005-0.005c13.113-13.113,28.897-23.369,45.535-31.398
		c0.518-0.197,1.017-0.437,1.493-0.716c40.751-19.285,86.271-25.369,110.14-27.278c0.014,0,0.028,0.002,0.042,0.002
		c0.32,0,0.641-0.016,0.961-0.046c2.732-0.122,5.468-0.311,8.201-0.565c0.014,0,0.029-0.001,0.043-0.002
		c0.117-0.006,0.23-0.025,0.346-0.035c30.099-2.871,60.079-13.691,87.031-31.205c0.199-0.119,0.395-0.246,0.588-0.38
		c12.377-8.101,24.108-17.611,34.913-28.412c0.009-0.008,0.018-0.015,0.027-0.024c0.008-0.008,0.014-0.017,0.021-0.025
		c34.374-34.382,55.681-77.83,59.995-122.347C515.578,109.24,501.975,68.301,472.888,39.19z M469.517,220.113l-14.453-14.453
		l32.939-32.94C484.288,189.034,478.044,205.001,469.517,220.113z M443.926,255.452L424.6,236.125l16.322-16.322l17.587,17.587
		C454.052,243.624,449.183,249.657,443.926,255.452z M411.704,284.158l-17.569-17.569l16.322-16.323l19.327,19.328
		C423.989,274.845,417.946,279.705,411.704,284.158z M203.07,345.533c-8.545-2.762-16.348-7.518-22.72-13.89
		c-6.37-6.371-11.127-14.172-13.889-22.719c8.207-17.954,14.088-36.524,18.295-53.872c6.588,16.271,16.225,30.96,28.725,43.462
		c12.22,12.22,26.776,21.771,42.926,28.384c0.211,0.114,0.428,0.215,0.645,0.314C239.672,331.42,221.062,337.309,203.07,345.533z
		 M155.023,375.931l-18.961-18.961c7.042-8.02,13.247-16.711,18.716-25.797c3.197,5.293,7.025,10.208,11.432,14.614
		c4.406,4.405,9.32,8.233,14.613,11.43C171.735,362.684,163.043,368.889,155.023,375.931z M216.845,117.582L231.263,132
		l-32.888,32.887C202.048,148.891,208.225,132.902,216.845,117.582z M242.402,82.209l19.326,19.327l-16.323,16.323l-17.572-17.572
		C232.259,94.076,237.121,88.037,242.402,82.209z M274.619,53.502l17.571,17.571l-16.321,16.321l-19.328-19.329
		C262.337,62.814,268.379,57.955,274.619,53.502z M373.755,20.006c11.359,0,22.351,1.376,32.757,4.038l-36.069,36.071L350.938,40.61
		l20.572-20.572C372.258,20.026,373.007,20.006,373.755,20.006z M451.296,46.557l-16.743,16.743l-19.506-19.507l12.319-12.319
		C436.016,35.502,444.047,40.552,451.296,46.557z M480.585,84.561l-12.386,12.385l-19.504-19.505l16.757-16.756
		C471.507,67.96,476.562,75.964,480.585,84.561z M491.967,140.473l-20.583,20.583l-19.506-19.506l23.374-23.374
		c0.006-0.006,0.012-0.011,0.018-0.017s0.012-0.012,0.018-0.018l12.721-12.722C490.824,116.493,492.168,128.247,491.967,140.473z
		 M279.815,313.614l12.675-12.674l0.002-0.001c0-0.001,0.002-0.002,0.002-0.003l23.39-23.389l19.506,19.505l-20.57,20.569
		c-0.75,0.012-1.5,0.032-2.248,0.032C301.212,317.652,290.221,316.275,279.815,313.614z M235.032,291.105l16.742-16.741
		l19.506,19.505l-12.318,12.318C250.313,302.158,242.282,297.109,235.032,291.105z M336.795,54.751l19.506,19.505l-16.322,16.322
		l-19.506-19.505L336.795,54.751z M400.908,57.934l19.506,19.507l-16.323,16.321l-19.506-19.506L400.908,57.934z M285.419,279.726
		l-19.505-19.505l16.321-16.322l19.506,19.505L285.419,279.726z M329.022,168.83l-16.322,16.324l-19.507-19.507l16.323-16.323
		L329.022,168.83z M323.659,135.182l16.32-16.321l19.507,19.506l-16.321,16.322L323.659,135.182z M298.558,199.295l-16.322,16.322
		l-19.506-19.506l16.321-16.322L298.558,199.295z M268.094,229.758l-16.321,16.322l-19.507-19.506l16.322-16.322L268.094,229.758z
		 M296.378,229.758l16.322-16.322l19.504,19.505l-16.32,16.322L296.378,229.758z M326.842,199.295l16.322-16.323l19.505,19.505
		L346.346,218.8L326.842,199.295z M357.307,168.831l16.321-16.322l19.505,19.505l-16.322,16.322L357.307,168.831z M387.769,138.367
		l16.322-16.322l19.504,19.504l-16.32,16.322L387.769,138.367z M418.233,107.904l16.322-16.322l19.504,19.505l-16.322,16.321
		L418.233,107.904z M389.949,107.904l-16.322,16.322l-19.506-19.506l16.322-16.322L389.949,107.904z M325.836,104.719l-16.32,16.321
		l-19.506-19.505l16.321-16.321L325.836,104.719z M295.374,135.182l-16.323,16.323l-19.505-19.505l16.323-16.323L295.374,135.182z
		 M264.91,165.648l-16.321,16.322l-19.506-19.505l16.322-16.322L264.91,165.648z M214.941,176.607l19.506,19.505l-36.096,36.095
		c-2.849-11.219-4.155-23-3.966-35.044L214.941,176.607z M218.124,240.716l19.508,19.506l-16.754,16.753
		c-6.104-7.342-11.129-15.368-15.109-23.902L218.124,240.716z M349.531,282.91l-19.506-19.505l16.321-16.321l19.506,19.505
		L349.531,282.91z M360.489,232.941l16.322-16.323l19.506,19.506l-16.322,16.323L360.489,232.941z M390.952,202.477l16.322-16.322
		l19.506,19.506l-16.322,16.322L390.952,202.477z M421.416,172.014l16.32-16.321l19.506,19.506l-16.32,16.321L421.416,172.014z
		 M329.744,33.519c-0.008,0.007-0.015,0.012-0.021,0.019c-0.006,0.006-0.012,0.013-0.018,0.02l-23.374,23.373l-14.434-14.435
		c15.155-8.545,31.142-14.797,47.381-18.511L329.744,33.519z M379.993,280.731l14.434,14.433
		c-15.152,8.544-31.138,14.795-47.374,18.508L379.993,280.731z M42.628,487.853l-18.487-18.487l98.017-98.018l18.486,18.488
		L42.628,487.853z"/>
	<path style="fill:#000001;" d="M152.653,141.855c1.045,0.347,2.107,0.512,3.152,0.512c4.191,0,8.096-2.657,9.488-6.852l0.219-0.646
		c1.778-5.229-1.018-10.909-6.247-12.688c-5.228-1.779-10.909,1.018-12.688,6.247l-0.265,0.786
		C144.574,134.455,147.412,140.114,152.653,141.855z"/>
	<path style="fill:#000001;" d="M165.759,421.293l-36.088,36.087c-3.904,3.905-3.905,10.237,0,14.142
		c1.953,1.953,4.512,2.929,7.071,2.929c2.56,0,5.118-0.977,7.071-2.929l36.087-36.087c3.905-3.905,3.906-10.237,0-14.142
		C175.996,417.388,169.664,417.389,165.759,421.293z"/>
	<path style="fill:#000001;" d="M186.186,400.859l-0.166,0.169c-3.877,3.934-3.83,10.265,0.104,14.142
		c1.947,1.92,4.484,2.877,7.018,2.877c2.583,0,5.166-0.995,7.123-2.98l0.167-0.169c3.876-3.934,3.83-10.265-0.104-14.142
		C196.394,396.879,190.063,396.926,186.186,400.859z"/>
</g>
<g>
</g>
<g>
</g>
<g>
</g>
<g>
</g>
<g>
</g>
<g>
</g>
<g>
</g>
<g>
</g>
<g>
</g>
<g>
</g>
<g>
</g>
<g>
</g>
<g>
</g>
<g>
</g>
<g>
</g>
</svg>
